<?xml version="1.0" encoding="UTF-8"?>
<svg version="1.1" xmlns="http://www.w3.org/2000/svg" width="437" height="248">
<path d="M0 0 C144.21 0 288.42 0 437 0 C437 81.84 437 163.68 437 248 C292.79 248 148.58 248 0 248 C0 166.16 0 84.32 0 0 Z " fill="#242424" transform="translate(0,0)"/>
<path d="M0 0 C6.57549529 5.26039623 11.6523403 10.36623318 14.8125 18.25 C15.225 19.1575 15.6375 20.065 16.0625 21 C18.46420653 31.40739496 16.89578791 42.43028157 11.4375 51.625 C9.21916409 54.8794449 6.74720287 57.60876741 3.8125 60.25 C3.090625 60.930625 2.36875 61.61125 1.625 62.3125 C-7.32338843 68.47694536 -17.51862153 70.16410219 -28.1875 69.25 C-37.85832069 67.09515942 -45.77148023 62.04335548 -51.5 53.9375 C-52.43046161 52.39537004 -53.32706075 50.8322667 -54.1875 49.25 C-54.60128906 48.50105469 -55.01507813 47.75210938 -55.44140625 46.98046875 C-59.66748476 38.10128639 -59.61528518 27.7595799 -56.75 18.4375 C-54.17782022 12.29539098 -49.91098695 7.84043098 -45.1875 3.25 C-44.6821875 2.7240625 -44.176875 2.198125 -43.65625 1.65625 C-31.58491501 -9.85362755 -13.35542209 -7.3323886 0 0 Z " fill="#2D2D2D" transform="translate(240.1875,67.75)"/>
<path d="M0 0 C144.21 0 288.42 0 437 0 C436.67 1.32 436.34 2.64 436 4 C435.09338818 3.99886084 434.18677636 3.99772168 433.25269145 3.996548 C379.56747133 3.92947239 325.88225564 3.87797001 272.19700203 3.84680401 C265.75674152 3.84305171 259.31648109 3.83916876 252.8762207 3.83520508 C251.5940339 3.83441815 250.31184709 3.83363122 248.99080614 3.83282044 C228.20617037 3.81975219 207.4215594 3.79609056 186.63693836 3.76854161 C165.32376153 3.74052685 144.01059773 3.72383208 122.69740325 3.71773452 C109.53684005 3.7136099 96.37634691 3.70056396 83.21580527 3.6762506 C74.20175023 3.66044188 65.18773161 3.65558856 56.1736637 3.65949587 C50.96628373 3.66142502 45.75902653 3.65838471 40.55166817 3.64238358 C35.79030743 3.62785904 31.02915283 3.62699881 26.2677829 3.63730332 C24.53960763 3.63857817 22.81141984 3.63470972 21.08326944 3.62535045 C18.74492143 3.61341653 16.40733035 3.61973462 14.06899548 3.63085651 C12.76693446 3.62971735 11.46487345 3.62857819 10.12335604 3.62740451 C7.03462819 3.74079164 7.03462819 3.74079164 5.08046561 5.37896746 C3.5636018 7.65473225 3.64343999 9.29468911 3.671875 12.015625 C3.67638672 13.01110352 3.68089844 14.00658203 3.68554688 15.03222656 C3.70681641 16.0940918 3.72808594 17.15595703 3.75 18.25 C3.76643555 19.89307129 3.76643555 19.89307129 3.78320312 21.56933594 C3.85899999 27.14699626 4.05400869 32.68822597 4.5 38.25 C5.08555182 45.60285791 5.11358178 52.938233 5.125 60.3125 C5.12951172 61.50584961 5.13402344 62.69919922 5.13867188 63.92871094 C5.12851854 69.98855688 4.93516921 75.89479139 4.11669922 81.90307617 C3.99078912 84.16550687 4.39700755 85.82845692 5 88 C5.09843033 90.39417312 5.12973088 92.79130905 5.125 95.1875 C5.12318726 96.28324341 5.12318726 96.28324341 5.12133789 97.40112305 C5.09102725 101.93233121 4.95006824 106.45024815 4.73828125 110.9765625 C4.68978027 112.02432861 4.6412793 113.07209473 4.59130859 114.15161133 C4.4929596 116.17276113 4.38604576 118.19352406 4.26806641 120.21362305 C3.94784386 126.66754352 4.10417102 133.00577423 4.47265625 139.44921875 C5.08377398 150.14089437 5.08113265 160.79435322 5 171.5 C4.97303511 175.11457908 4.9508161 178.72909344 4.9375 182.34375 C4.93266602 183.62886475 4.93266602 183.62886475 4.92773438 184.93994141 C4.93200484 190.40079751 5.26901292 195.74888374 5.82958984 201.18273926 C5.99089378 203.84945377 5.84668937 206.21052521 5.53125 208.85742188 C4.80635978 216.12991521 4.89120012 223.38697059 4.9375 230.6875 C4.94252972 232.08268067 4.94709 233.47786311 4.95117188 234.87304688 C4.96285249 238.24874437 4.97923167 241.62434826 5 245 C59.32920183 244.89542237 113.65839102 244.78565203 167.9875681 244.66888306 C174.39649714 244.6551129 180.80542628 244.64138589 187.21435547 244.62768555 C188.49029873 244.62495724 189.766242 244.62222894 191.08085021 244.61941796 C211.7613278 244.57530061 232.44181086 244.53468157 253.12229803 244.49534739 C274.33039848 244.45493212 295.53848874 244.41077597 316.74657416 244.36312145 C329.84107441 244.33381682 342.93557388 244.30745663 356.03008738 244.28482103 C365.00023214 244.26903588 373.97036442 244.24962869 382.94049534 244.22733159 C388.121622 244.2145611 393.30273903 244.20342742 398.48387718 244.19658089 C403.22241984 244.1902841 407.96092933 244.17946364 412.6994538 244.1649667 C414.41821793 244.16052095 416.1369874 244.15776939 417.85575703 244.15683801 C420.18360716 244.1553346 422.51136053 244.14778407 424.83919144 244.1386652 C426.1347972 244.13600716 427.43040297 244.13334911 428.76526952 244.13061053 C431.38985042 244.02463635 433.51383043 243.78684572 436 243 C435.97036163 242.36930603 435.94072327 241.73861206 435.91018677 241.08880615 C435.05764499 222.34458563 434.84149325 203.63999118 434.86962891 184.87988281 C434.87538578 180.99111241 434.87198828 177.10241018 434.86605644 173.21364212 C434.86240946 170.15060936 434.86360721 167.0875923 434.86618423 164.02455902 C434.86683896 162.59117372 434.86607772 161.15778687 434.86370468 159.72440338 C434.85122643 150.09984869 435.24651578 140.59024835 436 131 C436.33 131 436.66 131 437 131 C437 169.61 437 208.22 437 248 C292.79 248 148.58 248 0 248 C0 166.16 0 84.32 0 0 Z " fill="#4E4E4E" transform="translate(0,0)"/>
<path d="M0 0 C6.57549529 5.26039623 11.6523403 10.36623318 14.8125 18.25 C15.225 19.1575 15.6375 20.065 16.0625 21 C18.46420653 31.40739496 16.89578791 42.43028157 11.4375 51.625 C9.21916409 54.8794449 6.74720287 57.60876741 3.8125 60.25 C3.090625 60.930625 2.36875 61.61125 1.625 62.3125 C-7.32338843 68.47694536 -17.51862153 70.16410219 -28.1875 69.25 C-37.85832069 67.09515942 -45.77148023 62.04335548 -51.5 53.9375 C-52.43046161 52.39537004 -53.32706075 50.8322667 -54.1875 49.25 C-54.60128906 48.50105469 -55.01507813 47.75210938 -55.44140625 46.98046875 C-59.66748476 38.10128639 -59.61528518 27.7595799 -56.75 18.4375 C-54.17782022 12.29539098 -49.91098695 7.84043098 -45.1875 3.25 C-44.6821875 2.7240625 -44.176875 2.198125 -43.65625 1.65625 C-31.58491501 -9.85362755 -13.35542209 -7.3323886 0 0 Z M-44.1875 11.25 C-50.4085351 20.36930557 -52.02927421 27.17651949 -51.1875 38.25 C-49.33206087 46.11706192 -45.34016697 52.38653853 -38.68359375 56.9765625 C-30.37303509 62.08144715 -23.95793662 63.0073155 -14.1875 62.25 C-10.83343674 61.38171439 -8.12200173 60.07414972 -5.1875 58.25 C-4.47851562 57.81429687 -3.76953125 57.37859375 -3.0390625 56.9296875 C3.08761162 52.76172704 6.33314267 47.84272494 9.125 41.0625 C10.94967384 30.94385415 10.53701809 22.94747223 4.8125 14.25 C4.23628906 13.37214844 4.23628906 13.37214844 3.6484375 12.4765625 C-0.77259743 6.55177419 -7.20432058 3.20460139 -14.1875 1.25 C-26.20058929 -0.10218422 -35.62921703 2.4972106 -44.1875 11.25 Z " fill="#A7A7A7" transform="translate(240.1875,67.75)"/>
<path d="M0 0 C0.33 0 0.66 0 1 0 C1.07001803 14.82917623 1.12295273 29.65833065 1.15543652 44.48763847 C1.17091885 51.37283726 1.19203424 58.25793346 1.22631836 65.14306641 C1.25936354 71.78254091 1.27683313 78.42193654 1.28463173 85.06149673 C1.29019221 87.59974983 1.30104979 90.13799681 1.31719017 92.67620468 C1.33883888 96.22030199 1.34197216 99.76395313 1.34057617 103.30810547 C1.35675491 104.89629593 1.35675491 104.89629593 1.3732605 106.51657104 C1.36913651 107.47853394 1.36501251 108.44049683 1.36076355 109.43161011 C1.36352893 110.27044172 1.36629431 111.10927334 1.36914349 111.97352409 C1.24732614 112.64226114 1.12550879 113.31099819 1 114 C-2.71812855 116.47875237 -4.58368298 116.25056726 -9.02658749 116.25168228 C-9.7497862 116.25458916 -10.47298491 116.25749604 -11.21809873 116.26049101 C-13.66028837 116.26783495 -16.1022302 116.26082734 -18.54441833 116.25396729 C-20.3054478 116.25626999 -22.06647631 116.25944522 -23.82750279 116.26342177 C-28.68150024 116.27180469 -33.53541949 116.26762869 -38.38941729 116.26144934 C-43.61853427 116.25694006 -48.84763744 116.26390103 -54.07675171 116.26940918 C-64.3267242 116.27832136 -74.57666748 116.27637301 -84.82664113 116.2705839 C-93.15462806 116.26607433 -101.48260677 116.26545144 -109.81059456 116.26763153 C-111.58587139 116.26809123 -111.58587139 116.26809123 -113.3970124 116.26856022 C-115.80102388 116.26919964 -118.20503535 116.26984807 -120.60904682 116.2705054 C-143.17338006 116.2762141 -165.73769707 116.26964247 -188.30202765 116.25890467 C-207.67767826 116.24996982 -227.0533049 116.25151961 -246.42895508 116.26074219 C-268.90883579 116.27143728 -291.38870227 116.27566351 -313.86858517 116.26951766 C-316.26425334 116.26888054 -318.6599215 116.2682518 -321.05558968 116.26763153 C-322.23441695 116.26732298 -323.41324422 116.26701443 -324.62779353 116.26669653 C-332.94857132 116.26496722 -341.26934011 116.26788979 -349.5901165 116.27259064 C-359.72643416 116.27819108 -369.86272084 116.27670074 -379.99903493 116.26602915 C-385.17412463 116.26076096 -390.34916259 116.25873514 -395.52425194 116.26532745 C-400.25714285 116.27126542 -404.98993385 116.26804755 -409.72281564 116.25737235 C-411.43947387 116.25512913 -413.15614046 116.2562951 -414.87279337 116.26112393 C-417.19784109 116.26716489 -419.52254206 116.26100894 -421.84757137 116.25168228 C-423.14155092 116.25135758 -424.43553047 116.25103287 -425.76872152 116.25069833 C-428.80909261 116.01481153 -430.51036784 115.7095139 -433 114 C-434.15159913 111.69680174 -434.12671234 110.39870284 -434.12939453 107.8371582 C-434.13250641 106.96631592 -434.13561829 106.09547363 -434.13882446 105.19824219 C-434.13684052 104.24208008 -434.13485657 103.28591797 -434.1328125 102.30078125 C-434.13413177 101.29781006 -434.13545105 100.29483887 -434.1368103 99.26147461 C-434.13874446 95.94511951 -434.13234301 92.62884672 -434.125 89.3125 C-434.12411377 88.18572845 -434.12322754 87.05895691 -434.12231445 85.89804077 C-434.10025998 61.92419216 -433.62762066 37.96476025 -433 14 C-432.34 14 -431.68 14 -431 14 C-431.00222061 14.56217224 -431.00444122 15.12434448 -431.00672913 15.70355225 C-431.02903072 21.60949054 -431.04400922 27.51541667 -431.05493164 33.42138672 C-431.05992838 35.61898282 -431.06672801 37.81657564 -431.07543945 40.01416016 C-431.08771089 43.19174003 -431.09327505 46.36927557 -431.09765625 49.546875 C-431.10281754 50.5130072 -431.10797882 51.4791394 -431.11329651 52.47454834 C-431.11376274 58.27733646 -430.79379742 63.93826229 -430.11766052 69.70343018 C-430.01763328 72.50595706 -430.18016274 74.95293802 -430.48873997 77.72556686 C-431.18219208 85.0427298 -431.10906658 92.34491686 -431.0625 99.6875 C-431.05747028 101.08268067 -431.05291 102.47786311 -431.04882812 103.87304688 C-431.03714751 107.24874437 -431.02076833 110.62434826 -431 114 C-376.67079817 113.89542237 -322.34160898 113.78565203 -268.0124319 113.66888306 C-261.60350286 113.6551129 -255.19457372 113.64138589 -248.78564453 113.62768555 C-246.87172963 113.62359309 -246.87172963 113.62359309 -244.91914979 113.61941796 C-224.2386722 113.57530061 -203.55818914 113.53468157 -182.87770197 113.49534739 C-161.66960152 113.45493212 -140.46151126 113.41077597 -119.25342584 113.36312145 C-106.15892559 113.33381682 -93.06442612 113.30745663 -79.96991262 113.28482103 C-70.99976786 113.26903588 -62.02963558 113.24962869 -53.05950466 113.22733159 C-47.878378 113.2145611 -42.69726097 113.20342742 -37.51612282 113.19658089 C-32.77758016 113.1902841 -28.03907067 113.17946364 -23.3005462 113.1649667 C-21.58178207 113.16052095 -19.8630126 113.15776939 -18.14424297 113.15683801 C-15.81639284 113.1553346 -13.48863947 113.14778407 -11.16080856 113.1386652 C-9.21739991 113.13467814 -9.21739991 113.13467814 -7.23473048 113.13061053 C-4.61014958 113.02463635 -2.48616957 112.78684572 0 112 C-0.02963837 111.36930603 -0.05927673 110.73861206 -0.08981323 110.08880615 C-0.94235501 91.34458563 -1.15850675 72.63999118 -1.13037109 53.87988281 C-1.12461422 49.99111241 -1.12801172 46.10241018 -1.13394356 42.21364212 C-1.13759054 39.15060936 -1.13639279 36.0875923 -1.13381577 33.02455902 C-1.13316104 31.59117372 -1.13392228 30.15778687 -1.13629532 28.72440338 C-1.14877357 19.09984869 -0.75348422 9.59024835 0 0 Z " fill="#434343" transform="translate(436,131)"/>
<path d="M0 0 C0.72151034 -0.00145344 1.44302067 -0.00290688 2.18639496 -0.00440437 C4.62277892 -0.00807619 7.05910077 -0.00457247 9.49548435 -0.0011425 C11.25238803 -0.00229385 13.00929147 -0.00388147 14.7661944 -0.00586975 C19.60877083 -0.01006116 24.45132767 -0.0079732 29.29390419 -0.00488353 C34.51074699 -0.00262888 39.72758632 -0.00610938 44.94442844 -0.00886345 C55.17033046 -0.01331953 65.39622516 -0.01234537 75.62212747 -0.00945081 C83.9305664 -0.00719602 92.23900328 -0.00688458 100.54744244 -0.00797462 C101.72818496 -0.00812786 102.90892749 -0.00828109 104.12545009 -0.00843897 C106.52382457 -0.00875868 108.92219904 -0.00908289 111.32057352 -0.00941156 C133.83196691 -0.01226591 156.34335624 -0.0089801 178.85474897 -0.00361119 C198.1849117 0.00085623 217.51506843 0.00008134 236.84523106 -0.00452995 C259.27237105 -0.00987751 281.69950747 -0.01199061 304.12664801 -0.00891769 C306.51669919 -0.00859913 308.90675038 -0.00828476 311.29680157 -0.00797462 C313.06089631 -0.00774321 313.06089631 -0.00774321 314.86062933 -0.00750712 C323.16186786 -0.00664247 331.46310413 -0.00810375 339.76434231 -0.01045418 C349.87686277 -0.0132544 359.98937546 -0.01250921 370.10189503 -0.00717343 C375.26482011 -0.00453936 380.42773224 -0.00352642 385.59065723 -0.00682259 C390.31241837 -0.00979158 395.03415447 -0.00818257 399.75591332 -0.00284503 C401.46853466 -0.00172344 403.18115808 -0.00230638 404.89377808 -0.00472082 C407.21328876 -0.00774124 409.53271256 -0.00466312 411.85221863 0 C413.14316041 0.00016235 414.4341022 0.0003247 415.76416343 0.00049198 C418.3870102 0.1024409 420.50483783 0.33909882 422.98902988 1.12584114 C422.65902988 1.78584114 422.32902988 2.44584114 421.98902988 3.12584114 C421.08241806 3.12470198 420.17580624 3.12356282 419.24172133 3.12238914 C365.55650121 3.05531353 311.87128552 3.00381115 258.18603192 2.97264515 C251.7457714 2.96889285 245.30551098 2.9650099 238.86525059 2.96104622 C237.58306378 2.96025929 236.30087698 2.95947236 234.97983602 2.95866158 C214.19520026 2.94559333 193.41058928 2.9219317 172.62596824 2.89438275 C151.31279142 2.86636799 129.99962762 2.84967322 108.68643314 2.84357566 C95.52586994 2.83945104 82.3653768 2.8264051 69.20483515 2.80209174 C60.19078011 2.78628302 51.1767615 2.7814297 42.16269358 2.78533701 C36.95531361 2.78726616 31.74805641 2.78422585 26.54069805 2.76822472 C21.77933732 2.75370018 17.01818271 2.75283995 12.25681279 2.76314446 C10.52863751 2.76441932 8.80044973 2.76055086 7.07229932 2.75119159 C4.73395131 2.73925767 2.39636023 2.74557576 0.05802536 2.75669765 C-1.24403565 2.75555849 -2.54609666 2.75441933 -3.88761407 2.75324565 C-6.97634192 2.86663278 -6.97634192 2.86663278 -8.9305045 4.5048086 C-10.44736831 6.78057339 -10.36753012 8.42053025 -10.33909512 11.14146614 C-10.3345834 12.13694466 -10.33007168 13.13242317 -10.32542324 14.1580677 C-10.30415371 15.21993294 -10.28288418 16.28179817 -10.26097012 17.37584114 C-10.24453457 19.01891243 -10.24453457 19.01891243 -10.22776699 20.69517708 C-10.15197013 26.2728374 -9.95696143 31.81406711 -9.51097012 37.37584114 C-8.91847198 44.7905321 -8.89736093 52.18953569 -8.88597012 59.62584114 C-8.8814584 60.84432747 -8.87694668 62.0628138 -8.87229824 63.31822395 C-8.88177547 69.02193497 -8.97061154 74.51120754 -10.01097012 80.12584114 C-10.67097012 79.79584114 -11.33097012 79.46584114 -12.01097012 79.12584114 C-13.11046433 37.92989831 -13.11046433 37.92989831 -13.24314785 19.68907356 C-13.25499047 18.3180872 -13.27204607 16.94713557 -13.29441738 15.57628059 C-13.32389459 13.686722 -13.33207738 11.79686661 -13.33909512 9.90709114 C-13.34844082 8.85586067 -13.35778652 7.8046302 -13.36741543 6.72154427 C-13.01097012 4.12584114 -13.01097012 4.12584114 -11.6779623 2.32701302 C-7.99478202 -0.32694818 -4.37744718 0.00055059 0 0 Z " fill="#3C3C3C" transform="translate(14.010970115661621,0.8741588592529297)"/>
<path d="M0 0 C5.92310578 2.36924231 11.58125885 5.17911973 17.28515625 8.02246094 C19.25501954 9.0024973 21.22898501 9.97392584 23.203125 10.9453125 C24.45338691 11.56718204 25.7033961 12.18955999 26.953125 12.8125 C28.08911133 13.37582031 29.22509766 13.93914062 30.39550781 14.51953125 C33 16 33 16 34 18 C29.48187768 20.28373583 24.9611797 22.56225804 20.43798828 24.8359375 C18.8988525 25.61054162 17.360437 26.38657862 15.82275391 27.1640625 C13.61547549 28.27979833 11.40567846 29.3903961 9.1953125 30.5 C8.50567413 30.84998047 7.81603577 31.19996094 7.10549927 31.56054688 C2.22774341 34 2.22774341 34 0 34 C0 22.78 0 11.56 0 0 Z " fill="#AAAAAA" transform="translate(207,82)"/>
<path d="M0 0 C0.33 0 0.66 0 1 0 C1.02332986 14.84647949 1.0409796 29.69295657 1.05181217 44.53945065 C1.05697494 51.43247527 1.06401728 58.32548853 1.07543945 65.21850586 C1.086447 71.86446165 1.09227622 78.51040869 1.09487724 85.15637398 C1.09673201 87.69822946 1.1003536 90.24008426 1.10573006 92.78193474 C1.11293667 96.32851462 1.1139911 99.8750449 1.11352539 103.42163086 C1.11712067 104.48401978 1.12071594 105.54640869 1.12442017 106.64099121 C1.1230455 107.60157944 1.12167084 108.56216766 1.12025452 109.55186462 C1.12163721 110.81149474 1.12163721 110.81149474 1.12304783 112.09657192 C1 114 1 114 0 115 C-2.26734064 115.09816827 -4.53781773 115.12371083 -6.80728245 115.12304783 C-7.89294912 115.1247786 -7.89294912 115.1247786 -9.00054845 115.12654433 C-11.45665124 115.1292179 -13.91269013 115.1246828 -16.36878967 115.12025452 C-18.13506744 115.12069007 -19.90134515 115.12156468 -21.66762251 115.12284368 C-26.54524492 115.12509181 -31.42284559 115.12106304 -36.30046523 115.11606562 C-41.55134879 115.11176584 -46.80223102 115.11320721 -52.05311584 115.1139679 C-61.15860855 115.11449343 -70.26409412 115.11134355 -79.36958504 115.10573006 C-92.53475991 115.09761905 -105.69993132 115.09500025 -118.86510842 115.09374207 C-140.2223301 115.09155091 -161.57954797 115.08488912 -182.93676758 115.07543945 C-203.68904603 115.06626696 -224.44132345 115.05918533 -245.19360352 115.05493164 C-246.4717749 115.05466892 -247.74994628 115.05440619 -249.06685013 115.05413551 C-255.47876199 115.05283052 -261.89067385 115.0515668 -268.30258572 115.05032361 C-321.53505978 115.03994903 -374.76752971 115.02232901 -428 115 C-428 114.67 -428 114.34 -428 114 C-427.10434775 113.99826375 -426.20869549 113.9965275 -425.28590226 113.99473864 C-372.24358211 113.89178892 -319.20127459 113.78369342 -266.15897872 113.66888306 C-259.7951135 113.6551129 -253.43124818 113.64138589 -247.06738281 113.62768555 C-245.80041139 113.62495724 -244.53343997 113.62222894 -243.22807547 113.61941796 C-222.69309477 113.57530078 -202.15810855 113.53468168 -181.62311819 113.49534739 C-160.56417932 113.45493192 -139.50525072 113.41077574 -118.44632697 113.36312145 C-105.44395515 113.33381702 -92.44158411 113.3074568 -79.43919894 113.28482103 C-70.53212847 113.26903571 -61.62507056 113.24962847 -52.71801403 113.22733159 C-47.57334218 113.21456127 -42.42868002 113.20342754 -37.28399658 113.19658089 C-32.57876141 113.19028394 -27.87355965 113.17946329 -23.1683428 113.1649667 C-21.46169167 113.16052108 -19.75503516 113.15776942 -18.0483785 113.15683801 C-15.73686555 113.15533452 -13.42545003 113.14778373 -11.11395645 113.1386652 C-9.82746397 113.13600716 -8.54097149 113.13334911 -7.21549439 113.13061053 C-4.59911427 113.02433549 -2.47919238 112.7831603 0 112 C-0.02963837 111.36930603 -0.05927673 110.73861206 -0.08981323 110.08880615 C-0.94235501 91.34458563 -1.15850675 72.63999118 -1.13037109 53.87988281 C-1.12461422 49.99111241 -1.12801172 46.10241018 -1.13394356 42.21364212 C-1.13759054 39.15060936 -1.13639279 36.0875923 -1.13381577 33.02455902 C-1.13316104 31.59117372 -1.13392228 30.15778687 -1.13629532 28.72440338 C-1.14877357 19.09984869 -0.75348422 9.59024835 0 0 Z " fill="#383838" transform="translate(436,131)"/>
<path d="M0 0 C1.98 0 3.96 0 6 0 C5.02467331 0.51903585 5.02467331 0.51903585 4.02964306 1.04855728 C1.68314631 2.90917782 1.68314631 2.90917782 1.510602 6.19195175 C1.49507056 7.53558201 1.50185675 8.87957523 1.52571106 10.2230835 C1.52299893 10.96391434 1.52028679 11.70474518 1.51749247 12.46802545 C1.51323544 14.95793195 1.53761616 17.44674229 1.56176758 19.93652344 C1.56453221 21.71868712 1.56552193 23.50085431 1.56486511 25.28302002 C1.56799537 30.13043887 1.59567529 34.97745098 1.62735581 39.82475567 C1.65605647 44.89569408 1.66136384 49.96665248 1.66886902 55.03765869 C1.68648442 64.65183009 1.72363394 74.2658172 1.7684657 83.8798964 C1.83352238 97.97844577 1.87353996 112.07707101 1.90852642 126.17572403 C1.91109583 127.21014814 1.91366524 128.24457225 1.91631252 129.31034255 C1.92141072 131.37335944 1.9264429 133.43637649 1.93140715 135.4993937 C1.94665308 141.53800617 1.96900088 147.57653992 1.99746478 153.6151042 C2.01450726 157.37608217 2.02760948 161.13706759 2.03993416 164.89806366 C2.04658801 166.63992085 2.05501782 168.38177232 2.06537247 170.12361145 C2.07935818 172.50540987 2.0870641 174.88715252 2.09333801 177.26898193 C2.09897933 177.95469827 2.10462065 178.64041461 2.11043292 179.34691024 C2.11362069 183.67591019 1.69755383 187.74153881 1 192 C0.67 192 0.34 192 0 192 C0 128.64 0 65.28 0 0 Z " fill="#5E5E5E" transform="translate(0,0)"/>
<path d="M0 0 C0.66 0 1.32 0 2 0 C1.99777939 0.56217224 1.99555878 1.12434448 1.99327087 1.70355225 C1.97096928 7.60949054 1.95599078 13.51541667 1.94506836 19.42138672 C1.94007162 21.61898282 1.93327199 23.81657564 1.92456055 26.01416016 C1.91228911 29.19174003 1.90672495 32.36927557 1.90234375 35.546875 C1.89718246 36.5130072 1.89202118 37.4791394 1.88670349 38.47454834 C1.88622335 44.4504511 2.21946782 50.31418098 2.82702637 56.25999451 C3.05770408 59.91406698 2.66841349 63.389593 2.26220703 67.01806641 C1.73105574 73.05855229 1.89817688 79.12871519 1.9375 85.1875 C1.94253037 86.53450352 1.94709053 87.88150889 1.95117188 89.22851562 C1.96284646 92.48572537 1.97922117 95.74283778 2 99 C1.01 98.67 0.02 98.34 -1 98 C-1.13177739 65.31718109 -0.85566264 32.67220341 0 0 Z " fill="#3F3F3F" transform="translate(3,145)"/>
<path d="M0 0 C0.66 0.33 1.32 0.66 2 1 C1.51144531 1.38414063 1.02289062 1.76828125 0.51953125 2.1640625 C-2.70697901 6.0624168 -1.33283715 12.17783716 -1 17 C-0.77879194 19.23425293 -0.52811404 21.46419451 -0.27734375 23.6953125 C0.91870777 34.4429304 1.19783345 45.07266835 1.1875 55.875 C1.1882251 56.62228363 1.1889502 57.36956726 1.18969727 58.13949585 C1.18892374 65.17519508 1.12262744 72.03131115 0 79 C-0.66 78.67 -1.32 78.34 -2 78 C-3.09949422 36.80405717 -3.09949422 36.80405717 -3.23217773 18.56323242 C-3.24402036 17.19224606 -3.26107596 15.82129443 -3.28344727 14.45043945 C-3.31292447 12.56088086 -3.32110727 10.67102547 -3.328125 8.78125 C-3.3374707 7.73001953 -3.34681641 6.67878906 -3.35644531 5.59570312 C-2.95287417 2.65682065 -2.31244545 1.7797435 0 0 Z " fill="#404040" transform="translate(4,2)"/>
<path d="M0 0 C0.99 0.33 1.98 0.66 3 1 C3.08076963 3.45898655 3.14037143 5.91533742 3.1875 8.375 C3.22520508 9.42300781 3.22520508 9.42300781 3.26367188 10.4921875 C3.29296875 12.5234375 3.29296875 12.5234375 3 16 C-0.45245824 18.30163882 -1.94738713 18.34490322 -6 18 C-6.66 17.34 -7.32 16.68 -8 16 C-8 15.01 -8 14.02 -8 13 C-7.34 13 -6.68 13 -6 13 C-5.67 13.66 -5.34 14.32 -5 15 C-3.35 15 -1.7 15 0 15 C0.66 13.68 1.32 12.36 2 11 C0.906875 11.226875 -0.18625 11.45375 -1.3125 11.6875 C-5 12 -5 12 -6.9375 10.9375 C-8.47555213 8.13281671 -8.39310741 6.14485925 -8 3 C-5.87475246 -0.35565402 -3.78858688 -0.37885869 0 0 Z " fill="#D8D8D8" transform="translate(258,175)"/>
<path d="M0 0 C0.33 0 0.66 0 1 0 C1 6.6 1 13.2 1 20 C-7 20 -7 20 -9 18.875 C-10.47901666 16.10184376 -10.38601984 14.08815875 -10 11 C-8.8125 9.125 -8.8125 9.125 -7 8 C-4.375 7.75 -4.375 7.75 -2 8 C-1.67 8.33 -1.34 8.66 -1 9 C-0.67 6.03 -0.34 3.06 0 0 Z " fill="#E1E1E1" transform="translate(146,167)"/>
<path d="M0 0 C2 2 2 2 2.3125 4.9375 C2 8 2 8 0.875 9.875 C-1.88090884 11.52854531 -3.85075452 11.39365568 -7 11 C-8.875 9.875 -8.875 9.875 -10 8 C-10.39310741 4.85514075 -10.47555213 2.86718329 -8.9375 0.0625 C-5.81651045 -1.6490104 -3.35466116 -0.79291991 0 0 Z " fill="#DFDFDF" transform="translate(210,176)"/>
<path d="M0 0 C2 2 2 2 2.3125 4.9375 C2 8 2 8 0.875 9.875 C-1.88090884 11.52854531 -3.85075452 11.39365568 -7 11 C-8.875 9.875 -8.875 9.875 -10 8 C-10.39310741 4.85514075 -10.47555213 2.86718329 -8.9375 0.0625 C-5.81651045 -1.6490104 -3.35466116 -0.79291991 0 0 Z " fill="#DEDEDE" transform="translate(173,176)"/>
<path d="M0 0 C2 2 2 2 2.3125 4.9375 C2 8 2 8 0.875 9.875 C-1.88090884 11.52854531 -3.85075452 11.39365568 -7 11 C-8.875 9.875 -8.875 9.875 -10 8 C-10.39310741 4.85514075 -10.47555213 2.86718329 -8.9375 0.0625 C-5.81651045 -1.6490104 -3.35466116 -0.79291991 0 0 Z " fill="#272727" transform="translate(293,176)"/>
<path d="M0 0 C2.4375 0.4375 2.4375 0.4375 4.25 1.5 C6.084421 4.49300269 5.74857576 7.01566663 5.4375 10.4375 C3.4375 12.4375 3.4375 12.4375 0 12.75 C-3.5625 12.4375 -3.5625 12.4375 -5.5 11.25 C-6.97609492 8.73195572 -7.05339348 7.31273324 -6.5625 4.4375 C-4.53830677 1.66360557 -3.41064923 0.58230597 0 0 Z " fill="#2F2F2F" transform="translate(302.5625,174.5625)"/>
<path d="M0 0 C1.98 0 3.96 0 6 0 C5.35125916 0.3421907 4.70251831 0.68438141 4.03411865 1.03694153 C1.57887779 3.40641067 1.51003094 4.92431399 1.43885803 8.25978088 C1.4438884 8.96900192 1.44891876 9.67822296 1.45410156 10.40893555 C1.44376389 11.16039856 1.43342621 11.91186157 1.42277527 12.68609619 C1.39327816 15.16985398 1.3918467 17.65279935 1.390625 20.13671875 C1.37564794 21.85880596 1.35892179 23.58087877 1.34051514 25.30293274 C1.29677585 29.83538461 1.27682808 34.36764271 1.26177979 38.90026855 C1.2422323 43.52542612 1.20025972 48.15037369 1.16015625 52.77539062 C1.08478301 61.85019575 1.03453472 70.92495403 1 80 C0.67 80 0.34 80 0 80 C0 53.6 0 27.2 0 0 Z " fill="#595959" transform="translate(0,0)"/>
<path d="M0 0 C11.2 0 11.2 0 15 1 C16.20272819 3.40545638 16.10071472 4.94996953 16.0625 7.625 C16.05347656 8.44226563 16.04445312 9.25953125 16.03515625 10.1015625 C16.02355469 10.72804687 16.01195312 11.35453125 16 12 C15.34 12 14.68 12 14 12 C13.67 9.03 13.34 6.06 13 3 C12.01 3 11.02 3 10 3 C9.67 5.97 9.34 8.94 9 12 C8.34 12 7.68 12 7 12 C6.67 9.03 6.34 6.06 6 3 C5.01 3 4.02 3 3 3 C2.67 5.97 2.34 8.94 2 12 C1.34 12 0.68 12 0 12 C0 8.04 0 4.08 0 0 Z " fill="#D9D9D9" transform="translate(214,175)"/>
<path d="M0 0 C0.33 0 0.66 0 1 0 C1.20071548 1.76938414 1.38464182 3.5406723 1.5625 5.3125 C1.66691406 6.29863281 1.77132813 7.28476563 1.87890625 8.30078125 C1.97788207 11.32433299 1.8426203 14.00813751 1.53125 17 C0.83527387 23.89798832 0.89081949 30.76082981 0.9375 37.6875 C0.94201172 38.97333984 0.94652344 40.25917969 0.95117188 41.58398438 C0.96283999 44.72270653 0.97920985 47.86132728 1 51 C-1 49 -1 49 -1.24723816 47.03334045 C-1.24581314 46.22964523 -1.24438812 45.42595001 -1.24291992 44.59790039 C-1.24599655 43.68677994 -1.24907318 42.77565948 -1.25224304 41.83692932 C-1.24505753 40.85046921 -1.23787201 39.86400909 -1.23046875 38.84765625 C-1.23001053 37.8365831 -1.22955231 36.82550995 -1.2290802 35.78379822 C-1.22605542 33.6427188 -1.21816243 31.50164163 -1.20581055 29.3605957 C-1.18759444 26.07951066 -1.18530056 22.79870837 -1.18554688 19.51757812 C-1.18063019 17.44010172 -1.17480121 15.36262724 -1.16796875 13.28515625 C-1.16685593 12.30072037 -1.1657431 11.31628448 -1.16459656 10.30201721 C-1.15821671 9.3877446 -1.15183685 8.47347198 -1.14526367 7.53149414 C-1.14145187 6.72700333 -1.13764008 5.92251251 -1.13371277 5.09364319 C-1 3 -1 3 0 0 Z " fill="#333333" transform="translate(4,192)"/>
<path d="M0 0 C1.8125 1.25 1.8125 1.25 3 3 C3 4.32 3 5.64 3 7 C0.03 7 -2.94 7 -6 7 C-3.9927092 10.0109362 -3.16115776 10.63016497 0 12 C-2.3431213 11.74438677 -4.67843403 11.40729228 -7 11 C-8.39935013 8.20129973 -8.25265405 6.09501208 -8 3 C-5.90534242 -0.30735407 -3.75951639 -0.56392746 0 0 Z " fill="#CCCCCC" transform="translate(158,175)"/>
<path d="M0 0 C3 1 3 1 4.38671875 3.72265625 C5.59114583 6.81510417 6.79557292 9.90755208 8 13 C9.65 8.71 11.3 4.42 13 0 C13.66 0 14.32 0 15 0 C13.26375242 6.4188547 11.14819255 12.13784836 8 18 C5.08274448 14.6122194 3.71744176 10.92662445 2.3125 6.75 C2.08755859 6.1003125 1.86261719 5.450625 1.63085938 4.78125 C1.08083773 3.18969801 0.53953212 1.59513844 0 0 Z " fill="#DCDCDC" transform="translate(114,169)"/>
<path d="M0 0 C0.94875 0.04125 1.8975 0.0825 2.875 0.125 C3.205 1.115 3.535 2.105 3.875 3.125 C1.565 2.795 -0.745 2.465 -3.125 2.125 C-3.07731597 4.00380872 -3.07731597 4.00380872 -2.125 6.125 C-1.135 6.764375 -0.145 7.40375 0.875 8.0625 C3.875 10.125 3.875 10.125 4.9375 12.6875 C4.875 15.125 4.875 15.125 3.8125 16.9375 C1.11948045 18.58806037 -1.03070428 18.33128638 -4.125 18.125 C-4.785 16.805 -5.445 15.485 -6.125 14.125 C-5.135 14.62 -5.135 14.62 -4.125 15.125 C-2.12539988 15.164992 -0.12452758 15.16846799 1.875 15.125 C1.875 13.805 1.875 12.485 1.875 11.125 C-1.59 9.145 -1.59 9.145 -5.125 7.125 C-5.25 4.75 -5.25 4.75 -5.125 2.125 C-3.125 0.125 -3.125 0.125 0 0 Z " fill="#DADADA" transform="translate(276.125,168.875)"/>
<path d="M0 0 C0.33 0 0.66 0 1 0 C1.00808685 0.62782883 1.01617371 1.25565765 1.02450562 1.9025116 C1.110599 8.44017711 1.210105 14.97754108 1.31738281 21.51489258 C1.35565302 23.95429417 1.3905093 26.39375182 1.421875 28.83325195 C1.46756745 32.34086127 1.52555605 35.84808534 1.5859375 39.35546875 C1.59748871 40.44522507 1.60903992 41.53498138 1.62094116 42.65776062 C1.64081085 43.67844131 1.66068054 44.69912201 1.68115234 45.75073242 C1.69447601 46.64563889 1.70779968 47.54054535 1.7215271 48.46257019 C2.02861441 51.26073292 2.84655897 53.44387913 4 56 C2.68 56 1.36 56 0 56 C0 37.52 0 19.04 0 0 Z " fill="#585858" transform="translate(0,192)"/>
<path d="M0 0 C0 0.99 0 1.98 0 3 C-1.0725 2.7525 -2.145 2.505 -3.25 2.25 C-6.94771372 1.64540394 -6.94771372 1.64540394 -9.5 3.5 C-11.32777159 6.03275253 -11.32777159 6.03275253 -10.875 9.625 C-10.29259286 13.04542055 -10.29259286 13.04542055 -8 15 C-4.306493 15.20146402 -1.52059568 15.17353189 2 14 C1 17 1 17 -1 18 C-5.2535161 18.48153012 -7.3220363 18.44716755 -10.9375 16.0625 C-13.69990204 11.96075152 -13.93339724 8.81058577 -13 4 C-10.0569781 -1.24625643 -5.35967538 -0.41228272 0 0 Z " fill="#ECECEC" transform="translate(196,169)"/>
<path d="M0 0 C4.55555556 0.55555556 4.55555556 0.55555556 6 2 C6.1875 4.4375 6.1875 4.4375 6 7 C5.34 7.66 4.68 8.32 4 9 C-0.55555556 8.44444444 -0.55555556 8.44444444 -2 7 C-2.1875 4.5625 -2.1875 4.5625 -2 2 C-1.34 1.34 -0.68 0.68 0 0 Z " fill="#272727" transform="translate(204,177)"/>
<path d="M0 0 C4.55555556 0.55555556 4.55555556 0.55555556 6 2 C6.1875 4.4375 6.1875 4.4375 6 7 C5.34 7.66 4.68 8.32 4 9 C-0.55555556 8.44444444 -0.55555556 8.44444444 -2 7 C-2.1875 4.5625 -2.1875 4.5625 -2 2 C-1.34 1.34 -0.68 0.68 0 0 Z " fill="#272727" transform="translate(167,177)"/>
<path d="M0 0 C2 2 2 2 2.3125 4.9375 C2 8 2 8 0.875 9.875 C-1.88090884 11.52854531 -3.85075452 11.39365568 -7 11 C-8.875 9.875 -8.875 9.875 -10 8 C-10.39310741 4.85514075 -10.47555213 2.86718329 -8.9375 0.0625 C-5.81651045 -1.6490104 -3.35466116 -0.79291991 0 0 Z M-6 1 C-8.2491908 2.82703227 -8.2491908 2.82703227 -8.25 5.5 C-8.2491908 8.17296773 -8.2491908 8.17296773 -6 10 C-2.69316534 9.71016731 -2.69316534 9.71016731 0 8 C0.2500773 5.54190002 0.2500773 5.54190002 0 3 C-0.66 2.34 -1.32 1.68 -2 1 C-3.32 1 -4.64 1 -6 1 Z " fill="#DEDEDE" transform="translate(293,176)"/>
<path d="M0 0 C2.5625 0.1875 2.5625 0.1875 4.5625 2.1875 C4.23278521 5.48464793 3.9398161 6.8101839 1.5625 9.1875 C-1.97321429 8.65178571 -1.97321429 8.65178571 -3.4375 7.1875 C-3.5625 4.1875 -3.5625 4.1875 -3.4375 1.1875 C-2.4375 0.1875 -2.4375 0.1875 0 0 Z " fill="#2D2D2D" transform="translate(255.4375,176.8125)"/>
<path d="M0 0 C2.5625 0.1875 2.5625 0.1875 4.5625 2.1875 C4.23278521 5.48464793 3.9398161 6.8101839 1.5625 9.1875 C-1.97321429 8.65178571 -1.97321429 8.65178571 -3.4375 7.1875 C-3.5625 4.1875 -3.5625 4.1875 -3.4375 1.1875 C-2.4375 0.1875 -2.4375 0.1875 0 0 Z " fill="#2C2C2C" transform="translate(141.4375,176.8125)"/>
<path d="M0 0 C3.375 -0.125 3.375 -0.125 7 0 C9 2 9 2 9.1953125 4.3828125 C9.17210937 5.28773438 9.14890625 6.19265625 9.125 7.125 C9.10695312 8.03507813 9.08890625 8.94515625 9.0703125 9.8828125 C9.04710937 10.58148438 9.02390625 11.28015625 9 12 C8.34 12 7.68 12 7 12 C7 8.7 7 5.4 7 2 C5.68 2 4.36 2 3 2 C2.67 5.3 2.34 8.6 2 12 C1.34 12 0.68 12 0 12 C0 8.04 0 4.08 0 0 Z " fill="#D1D1D1" transform="translate(238,175)"/>
<path d="M0 0 C3.375 -0.125 3.375 -0.125 7 0 C9 2 9 2 9.1953125 4.3828125 C9.17210937 5.28773438 9.14890625 6.19265625 9.125 7.125 C9.10695313 8.03507813 9.08890625 8.94515625 9.0703125 9.8828125 C9.04710937 10.58148438 9.02390625 11.28015625 9 12 C8.34 12 7.68 12 7 12 C7 8.7 7 5.4 7 2 C5.68 2 4.36 2 3 2 C2.67 5.3 2.34 8.6 2 12 C1.34 12 0.68 12 0 12 C0 8.04 0 4.08 0 0 Z " fill="#D1D1D1" transform="translate(311,175)"/>
<path d="M0 0 C2.4375 0.4375 2.4375 0.4375 4.25 1.5 C6.084421 4.49300269 5.74857576 7.01566663 5.4375 10.4375 C3.4375 12.4375 3.4375 12.4375 0 12.75 C-3.5625 12.4375 -3.5625 12.4375 -5.5 11.25 C-6.97609492 8.73195572 -7.05339348 7.31273324 -6.5625 4.4375 C-4.53830677 1.66360557 -3.41064923 0.58230597 0 0 Z M-4.5625 4.4375 C-4.89583333 6.9375 -4.89583333 6.9375 -4.5625 9.4375 C-3.9025 10.0975 -3.2425 10.7575 -2.5625 11.4375 C0.73464793 11.10778521 2.0601839 10.8148161 4.4375 8.4375 C4.14766731 5.13066534 4.14766731 5.13066534 2.4375 2.4375 C-1.523668 2.04659667 -1.523668 2.04659667 -4.5625 4.4375 Z " fill="#DCDCDC" transform="translate(302.5625,174.5625)"/>
<path d="M0 0 C0.515625 0.495 1.03125 0.99 1.5625 1.5 C4.84816934 3.52195036 7.20442221 3.27604202 11 3 C11.99 2.67 12.98 2.34 14 2 C13 5 13 5 11 6 C7.33031947 6.27182819 4.84083732 6.45275856 1.5625 4.6875 C0 3 0 3 0 0 Z " fill="#D5D5D5" transform="translate(184,181)"/>
<path d="M0 0 C2.4375 0.375 2.4375 0.375 5 1 C6.20272819 3.40545638 6.10071472 4.94996953 6.0625 7.625 C6.05347656 8.44226563 6.04445312 9.25953125 6.03515625 10.1015625 C6.02355469 10.72804687 6.01195312 11.35453125 6 12 C5.34 12 4.68 12 4 12 C3.67 9.03 3.34 6.06 3 3 C1.68 3 0.36 3 -1 3 C-0.67 2.01 -0.34 1.02 0 0 Z " fill="#C7C7C7" transform="translate(224,175)"/>
<path d="M0 0 C2.97 0 5.94 0 9 0 C8.67 1.32 8.34 2.64 8 4 C6.02 4 4.04 4 2 4 C1.34 2.68 0.68 1.36 0 0 Z " fill="#444444" transform="translate(152,182)"/>
<path d="M0 0 C0.66 0 1.32 0 2 0 C-1.07517084 10.55808656 -1.07517084 10.55808656 -3 15 C-3.66 14.34 -4.32 13.68 -5 13 C-3.35 8.71 -1.7 4.42 0 0 Z " fill="#D6D6D6" transform="translate(127,169)"/>
<path d="M0 0 C6.75 0.75 6.75 0.75 9 3 C9.125 6.125 9.125 6.125 9 9 C7 8 7 8 6.1875 5.5625 C5.21535469 2.76670768 5.21535469 2.76670768 2.375 1.6875 C1.59125 1.460625 0.8075 1.23375 0 1 C0 0.67 0 0.34 0 0 Z " fill="#CACACA" transform="translate(286,175)"/>
<path d="M0 0 C6.75 0.75 6.75 0.75 9 3 C9.125 6.125 9.125 6.125 9 9 C7 8 7 8 6.1875 5.5625 C5.21535469 2.76670768 5.21535469 2.76670768 2.375 1.6875 C1.59125 1.460625 0.8075 1.23375 0 1 C0 0.67 0 0.34 0 0 Z " fill="#CACACA" transform="translate(203,175)"/>
<path d="M0 0 C6.75 0.75 6.75 0.75 9 3 C9.125 6.125 9.125 6.125 9 9 C7 8 7 8 6.1875 5.5625 C5.21535469 2.76670768 5.21535469 2.76670768 2.375 1.6875 C1.59125 1.460625 0.8075 1.23375 0 1 C0 0.67 0 0.34 0 0 Z " fill="#CACACA" transform="translate(166,175)"/>
<path d="M0 0 C1.65 0 3.3 0 5 0 C5.33 0.99 5.66 1.98 6 3 C3.69 3 1.38 3 -1 3 C-0.67 2.01 -0.34 1.02 0 0 Z " fill="#2A2A2A" transform="translate(153,177)"/>
<path d="M0 0 C0.66 0 1.32 0 2 0 C1.67 1.32 1.34 2.64 1 4 C-1.31 4 -3.62 4 -6 4 C-6.33 3.34 -6.66 2.68 -7 2 C-6.21625 2.04125 -5.4325 2.0825 -4.625 2.125 C-1.83883881 2.28728734 -1.83883881 2.28728734 0 0 Z " fill="#E6E6E6" transform="translate(145,183)"/>
</svg>
